C:\Users\Nicos\Documents\OpenSimProjects\SprintingProject\Study1\PredictiveResults\IC_pred_Sprinting_optimum_26-October-2023__10-52-28_p02_maxVel_01___Nominal_GRF.mot
version=1
nRows=69
nColumns=10
inDegrees=yes
endheader
time	ground_force_vx	ground_force_vy	ground_force_vz	ground_force_px	ground_force_py	ground_force_pz	ground_torque_x	ground_torque_y	ground_torque_z
0.056000	-82.168842	39.999994	18.196759	0.356736	0.000000	0.423466	-16.938652	-41.284947	14.269445
0.056646	-111.793976	54.883478	22.602113	0.358872	0.000000	0.423062	-23.219122	-55.401973	19.696143
0.058689	-218.538490	111.684958	26.604660	0.364647	0.000000	0.422103	-47.142552	-101.902375	40.725608
0.060169	-308.245489	164.245134	18.302133	0.367375	0.000000	0.421882	-69.292026	-136.616548	60.339552
0.060815	-357.599692	194.762131	13.099112	0.367653	0.000000	0.422312	-82.250361	-155.593461	71.604869
0.062857	-568.500743	339.263716	-12.877928	0.364835	0.000000	0.423461	-143.665097	-235.112672	123.775396
0.064337	-765.967516	510.560231	-38.326234	0.361484	0.000000	0.424079	-216.518082	-309.019512	184.559258
0.064983	-858.248883	606.482786	-54.238284	0.359781	0.000000	0.424333	-257.350742	-342.016778	218.200805
0.067026	-1098.066692	986.453856	-113.116425	0.354874	0.000000	0.424978	-419.220784	-420.167713	350.067239
0.068506	-1177.581679	1331.517493	-144.019364	0.350043	0.000000	0.425387	-566.410332	-438.004829	466.088802
0.069152	-1188.587232	1513.062215	-146.322193	0.346259	0.000000	0.425493	-643.796765	-437.173051	523.911368
0.071194	-1062.736165	2101.078143	-108.446232	0.335254	0.000000	0.425599	-894.216335	-375.903130	704.395199
0.072674	-847.652230	2492.969333	-46.105107	0.329020	0.000000	0.425568	-1060.927808	-289.724823	820.237635
0.073321	-734.899223	2644.973527	-19.668659	0.326544	0.000000	0.425507	-1125.455941	-244.698130	863.700676
0.075363	-360.633181	3088.071981	55.110188	0.320784	0.000000	0.425284	-1313.307359	-100.873898	990.603035
0.076843	-234.266855	3373.274832	67.501772	0.317821	0.000000	0.425006	-1433.663354	-50.725244	1072.098706
0.077489	-203.302549	3487.874040	52.882889	0.316864	0.000000	0.424835	-1481.770187	-32.920388	1105.181242
0.079531	-79.046199	3803.418484	13.019039	0.315363	0.000000	0.424462	-1614.406773	25.304616	1199.455712
0.081011	50.592921	3981.177584	-178.962593	0.315534	0.000000	0.423610	-1686.466726	108.022270	1256.197867
0.081658	71.381804	4046.087133	-118.388137	0.315759	0.000000	0.423865	-1714.996182	107.814773	1277.587362
0.083700	180.938944	4181.985649	-126.505328	0.317357	0.000000	0.423910	-1772.784828	157.252610	1327.183015
0.085180	257.222863	4215.327999	-134.141031	0.319040	0.000000	0.423991	-1787.261615	191.721973	1344.858307
0.085826	290.208109	4211.985516	-133.839247	0.319874	0.000000	0.424048	-1786.085538	205.606528	1347.302970
0.087868	363.704587	4154.306709	-131.635222	0.323281	0.000000	0.424287	-1762.618869	235.666819	1343.009619
0.089349	407.289766	4065.100820	-125.843686	0.326435	0.000000	0.424529	-1725.754347	252.281260	1326.990745
0.089995	432.240053	4012.662355	-121.567436	0.327992	0.000000	0.424658	-1704.010767	261.276388	1316.119894
0.092037	507.334187	3800.415770	-104.998013	0.333495	0.000000	0.424971	-1615.066572	285.649267	1267.420816
0.093517	527.527133	3612.431068	-84.207359	0.338106	0.000000	0.425410	-1536.764807	288.895121	1221.386142
0.094163	549.239032	3524.812985	-78.470719	0.340376	0.000000	0.425605	-1500.176820	295.065389	1199.760892
0.096206	584.416427	3233.345790	-68.041246	0.348148	0.000000	0.426151	-1377.893781	302.216805	1125.683200
0.097686	600.720355	3013.327314	-58.357050	0.354438	0.000000	0.426573	-1285.402701	302.644103	1068.038335
0.098332	600.071056	2915.900710	-55.218632	0.357260	0.000000	0.426774	-1244.430540	300.600180	1041.733826
0.100374	613.152414	2614.493489	-41.202548	0.366757	0.000000	0.427432	-1117.517461	295.722204	958.884030
0.101854	611.856295	2411.547824	-40.028636	0.373478	0.000000	0.427869	-1031.825594	290.034152	900.659567
0.102501	613.075033	2332.914871	-36.924674	0.375930	0.000000	0.428015	-998.523120	288.032292	877.011838
0.104543	622.134429	2115.780780	-26.219956	0.381738	0.000000	0.428429	-906.461433	285.570377	807.673983
0.106023	628.692817	1957.751581	-16.216960	0.385897	0.000000	0.428814	-839.511194	283.477138	755.489802
0.106669	630.822607	1887.441802	-11.146536	0.387826	0.000000	0.429013	-809.736433	281.958807	731.998392
0.108711	629.754909	1658.185335	5.150503	0.394270	0.000000	0.429677	-712.483725	274.393875	653.773409
0.110191	620.782872	1492.915390	17.425107	0.399194	0.000000	0.430204	-642.258316	265.304543	595.963084
0.110838	615.606460	1424.975738	23.669844	0.401296	0.000000	0.430452	-613.384248	260.356941	571.837403
0.112880	587.369915	1229.997534	40.042889	0.407510	0.000000	0.431212	-530.390137	240.532603	501.235698
0.114360	554.500457	1093.006030	47.747580	0.411868	0.000000	0.431752	-471.907977	222.791945	450.174364
0.115006	543.139934	1038.880968	51.015703	0.413737	0.000000	0.432080	-448.879471	216.035675	429.823242
0.117048	511.900253	872.769223	62.849813	0.417662	0.000000	0.432702	-377.649000	196.213669	364.522287
0.118528	473.561594	768.698697	71.956014	0.418904	0.000000	0.432715	-332.627516	175.238258	322.010616
0.119175	455.638587	725.747212	74.261902	0.419157	0.000000	0.432602	-313.959357	166.313970	304.201839
0.121217	400.358062	596.232902	82.770740	0.419281	0.000000	0.432248	-257.720758	138.414515	249.989384
0.122697	360.119456	514.023550	86.976159	0.417892	0.000000	0.432074	-222.096446	119.267817	214.806331
0.123343	338.947215	477.923805	87.479049	0.416992	0.000000	0.431971	-206.449232	109.945798	199.290579
0.125386	268.514281	362.715026	77.564268	0.413659	0.000000	0.431281	-156.432151	83.720419	150.040190
0.126866	209.103524	278.801421	69.255334	0.410687	0.000000	0.430696	-120.078696	61.617805	114.500250
0.127512	184.107269	242.912281	69.527065	0.409361	0.000000	0.430580	-104.593067	50.811153	99.438862
0.129554	100.212398	135.586428	56.566191	0.404570	0.000000	0.429387	-58.219088	20.144945	54.854204
0.131034	47.858863	70.189433	36.507870	0.400959	0.000000	0.427528	-30.007977	5.822866	28.143083
0.131680	30.948909	46.537748	26.917829	0.399538	0.000000	0.426446	-19.845851	2.443342	18.593616
0.133723	1.933657	3.837379	2.880455	0.395678	0.000000	0.421270	-1.616572	-0.325140	1.518365
0.135203	0.101565	0.353583	0.293765	0.394811	0.000000	0.416126	-0.147135	-0.073718	0.139599
0.135849	0.012968	0.079161	0.067144	0.395339	0.000000	0.413685	-0.032748	-0.021180	0.031295
0.137891	-0.000075	0.000293	0.000232	0.401299	0.000000	0.406671	-0.000119	-0.000124	0.000118
0.139371	-0.000002	0.000003	0.000002	0.409723	0.000000	0.403664	-0.000001	-0.000001	0.000001
0.140018	-0.000000	0.000000	0.000000	0.414298	0.000000	0.403140	-0.000000	-0.000000	0.000000
0.142060	-0.000000	0.000000	0.000000	0.432234	0.000000	0.404418	-0.000000	-0.000000	0.000000
0.143540	-0.000000	0.000000	0.000000	0.448265	0.000000	0.407043	-0.000000	-0.000000	0.000000
0.144186	-0.000000	0.000000	0.000000	0.456046	0.000000	0.408370	-0.000000	-0.000000	0.000000
0.146228	-0.000000	0.000000	-0.000000	NaN	0.000000	NaN	0.000000	0.000000	0.000000
0.147708	-0.000000	0.000000	-0.000000	NaN	0.000000	NaN	0.000000	0.000000	0.000000
0.148355	-0.000000	0.000000	-0.000000	NaN	0.000000	NaN	0.000000	0.000000	0.000000
0.150397	-0.000000	0.000000	-0.000000	NaN	0.000000	NaN	0.000000	0.000000	0.000000
